<svg width="20" height="20" viewBox="0 0 20 20" fill="none" xmlns="http://www.w3.org/2000/svg">
<g id="Bell">
<path id="Vector" d="M15.5242 14.6768H3.7688C3.66593 14.6761 3.56502 14.6485 3.47616 14.5967C3.3873 14.5449 3.3136 14.4706 3.26243 14.3813C3.21126 14.2921 3.18441 14.191 3.18457 14.0881C3.18473 13.9852 3.21188 13.8842 3.26332 13.7951C3.7475 12.9575 4.35657 10.8423 4.35657 8.2113C4.35657 6.80833 4.9139 5.46282 5.90595 4.47077C6.898 3.47872 8.24352 2.92139 9.64649 2.92139C11.0495 2.92139 12.395 3.47872 13.387 4.47077C14.3791 5.46282 14.9364 6.80833 14.9364 8.2113C14.9364 10.843 15.5462 12.9575 16.0311 13.7951C16.0826 13.8843 16.1098 13.9855 16.1099 14.0885C16.11 14.1915 16.083 14.2927 16.0316 14.382C15.9803 14.4713 15.9064 14.5455 15.8173 14.5972C15.7283 14.649 15.6272 14.6764 15.5242 14.6768Z" fill="#1C1C1C" fill-opacity="0.1"/>
<path id="Vector_2" d="M16.5381 13.4967C16.1303 12.7943 15.5242 10.8069 15.5242 8.21118C15.5242 6.65232 14.9049 5.15731 13.8026 4.05503C12.7004 2.95275 11.2053 2.3335 9.64649 2.3335C8.08763 2.3335 6.59262 2.95275 5.49034 4.05503C4.38806 5.15731 3.7688 6.65232 3.7688 8.21118C3.7688 10.8076 3.16193 12.7943 2.75417 13.4967C2.65004 13.6753 2.59483 13.8781 2.59412 14.0848C2.59341 14.2915 2.64722 14.4948 2.75012 14.6741C2.85303 14.8533 3.00138 15.0023 3.18023 15.106C3.35908 15.2096 3.56209 15.2643 3.7688 15.2644H6.76716C6.90276 15.928 7.2634 16.5243 7.78806 16.9526C8.31272 17.3809 8.96921 17.6148 9.64649 17.6148C10.3238 17.6148 10.9802 17.3809 11.5049 16.9526C12.0296 16.5243 12.3902 15.928 12.5258 15.2644H15.5242C15.7308 15.2641 15.9337 15.2094 16.1125 15.1057C16.2912 15.002 16.4395 14.853 16.5423 14.6737C16.6451 14.4945 16.6989 14.2913 16.6981 14.0846C16.6974 13.878 16.6422 13.6752 16.5381 13.4967ZM9.64649 16.4399C9.28194 16.4398 8.92639 16.3267 8.62876 16.1162C8.33114 15.9057 8.10609 15.6081 7.98457 15.2644H11.3084C11.1869 15.6081 10.9618 15.9057 10.6642 16.1162C10.3666 16.3267 10.011 16.4398 9.64649 16.4399ZM3.7688 14.0889C4.33453 13.1161 4.94434 10.862 4.94434 8.21118C4.94434 6.96409 5.43974 5.76808 6.32157 4.88626C7.20339 4.00444 8.3994 3.50903 9.64649 3.50903C10.8936 3.50903 12.0896 4.00444 12.9714 4.88626C13.8532 5.76808 14.3486 6.96409 14.3486 8.21118C14.3486 10.8598 14.957 13.1139 15.5242 14.0889H3.7688Z" fill="#1C1C1C"/>
</g>
</svg>
