<svg width="20" height="20" viewBox="0 0 20 20" fill="none" xmlns="http://www.w3.org/2000/svg">
<g id="ClockCounterClockwise">
<path id="Vector" d="M16.2565 9.97473C16.2565 11.2535 15.8773 12.5035 15.1668 13.5667C14.4564 14.63 13.4466 15.4587 12.2652 15.948C11.0838 16.4374 9.78385 16.5654 8.52967 16.316C7.2755 16.0665 6.12346 15.4507 5.21925 14.5465C4.31504 13.6423 3.69927 12.4903 3.4498 11.2361C3.20033 9.9819 3.32836 8.68192 3.81772 7.50051C4.30707 6.3191 5.13577 5.30934 6.199 4.5989C7.26224 3.88847 8.51227 3.50928 9.79102 3.50928C11.5058 3.50928 13.1503 4.19046 14.3628 5.40297C15.5753 6.61547 16.2565 8.25999 16.2565 9.97473Z" fill="#1C1C1C" fill-opacity="0.1"/>
<path id="Vector_2" d="M10.3788 6.44802V9.64181L13.0326 11.2339C13.1662 11.3142 13.2625 11.4443 13.3003 11.5956C13.338 11.7469 13.3142 11.907 13.2339 12.0406C13.1536 12.1743 13.0235 12.2706 12.8722 12.3084C12.7209 12.3461 12.5608 12.3222 12.4272 12.2419L9.48831 10.4786C9.40133 10.4264 9.32936 10.3525 9.27941 10.2642C9.22945 10.1759 9.20322 10.0761 9.20325 9.97463V6.44802C9.20325 6.29213 9.26517 6.14263 9.3754 6.0324C9.48563 5.92218 9.63513 5.86025 9.79102 5.86025C9.9469 5.86025 10.0964 5.92218 10.2066 6.0324C10.3169 6.14263 10.3788 6.29213 10.3788 6.44802ZM9.79102 2.92141C8.86381 2.9191 7.94535 3.1007 7.08879 3.45571C6.23223 3.81072 5.45459 4.33208 4.80086 4.98962C4.26673 5.53037 3.7921 6.05054 3.32556 6.59496V5.27248C3.32556 5.1166 3.26364 4.9671 3.15341 4.85687C3.04318 4.74664 2.89368 4.68471 2.73779 4.68471C2.58191 4.68471 2.43241 4.74664 2.32218 4.85687C2.21195 4.9671 2.15002 5.1166 2.15002 5.27248V8.21133C2.15002 8.36721 2.21195 8.51671 2.32218 8.62694C2.43241 8.73717 2.58191 8.79909 2.73779 8.79909H5.67664C5.83252 8.79909 5.98202 8.73717 6.09225 8.62694C6.20248 8.51671 6.2644 8.36721 6.2644 8.21133C6.2644 8.05544 6.20248 7.90594 6.09225 7.79571C5.98202 7.68548 5.83252 7.62356 5.67664 7.62356H3.9868C4.51212 7.00493 5.03523 6.42231 5.63182 5.81837C6.44871 5.00149 7.48822 4.44344 8.62045 4.21397C9.75269 3.9845 10.9274 4.09377 11.9979 4.52814C13.0684 4.9625 13.9872 5.7027 14.6394 6.65624C15.2916 7.60978 15.6483 8.73438 15.665 9.88951C15.6817 11.0446 15.3577 12.1791 14.7333 13.1511C14.109 14.1231 13.212 14.8896 12.1545 15.3547C11.0971 15.8199 9.92597 15.9631 8.78757 15.7665C7.64917 15.5698 6.59396 15.0421 5.75378 14.2492C5.69763 14.1961 5.63157 14.1546 5.55938 14.1271C5.4872 14.0996 5.41029 14.0865 5.33306 14.0887C5.25583 14.0909 5.17979 14.1082 5.10928 14.1398C5.03876 14.1714 4.97515 14.2165 4.92209 14.2727C4.86902 14.3288 4.82754 14.3949 4.8 14.4671C4.77246 14.5393 4.75941 14.6162 4.76159 14.6934C4.76378 14.7706 4.78115 14.8467 4.81272 14.9172C4.84429 14.9877 4.88945 15.0513 4.9456 15.1044C5.78276 15.8944 6.80056 16.4675 7.91016 16.7737C9.01976 17.0799 10.1874 17.1099 11.3113 16.861C12.4351 16.6122 13.481 16.0921 14.3576 15.3461C15.2342 14.6 15.9149 13.6508 16.3403 12.5812C16.7657 11.5117 16.9229 10.3542 16.7981 9.20993C16.6733 8.06564 16.2703 6.96929 15.6244 6.01655C14.9784 5.06381 14.1091 4.28364 13.0923 3.74412C12.0755 3.20461 10.9421 2.92216 9.79102 2.92141Z" fill="#1C1C1C"/>
</g>
</svg>
