<svg width="19" height="19" viewBox="0 0 19 19" fill="none" xmlns="http://www.w3.org/2000/svg">
<path d="M16.9651 16.9726C16.8554 17.0807 16.7077 17.1414 16.5537 17.1416C16.3976 17.141 16.2477 17.0805 16.1349 16.9726L12.9607 13.7911C11.6238 14.914 9.90511 15.4774 8.16295 15.3638C6.4208 15.2503 4.78974 14.4686 3.60994 13.1817C2.43014 11.8948 1.79271 10.2021 1.83058 8.45669C1.86844 6.71126 2.5787 5.04782 3.8132 3.81332C5.0477 2.57882 6.71113 1.86857 8.45657 1.8307C10.202 1.79283 11.8947 2.43026 13.1816 3.61006C14.4685 4.78986 15.2502 6.42092 15.3637 8.16308C15.4773 9.90523 14.9138 11.624 13.791 12.9608L16.9651 16.135C17.0207 16.1897 17.0648 16.2549 17.0949 16.3268C17.125 16.3987 17.1405 16.4759 17.1405 16.5538C17.1405 16.6318 17.125 16.7089 17.0949 16.7808C17.0648 16.8527 17.0207 16.9179 16.9651 16.9726ZM8.61821 14.2026C9.72267 14.2026 10.8023 13.875 11.7206 13.2614C12.639 12.6478 13.3547 11.7757 13.7774 10.7553C14.2 9.73494 14.3106 8.61214 14.0951 7.52891C13.8797 6.44568 13.3478 5.45066 12.5669 4.6697C11.7859 3.88873 10.7909 3.35688 9.70764 3.14142C8.62441 2.92595 7.50161 3.03653 6.48122 3.45919C5.46084 3.88185 4.58871 4.59759 3.9751 5.51591C3.3615 6.43423 3.03399 7.51388 3.03399 8.61833C3.03594 10.0988 3.6249 11.518 4.67172 12.5648C5.71854 13.6116 7.13778 14.2006 8.61821 14.2026Z" fill="#1C1C1C"/>
</svg>
