<svg width="19" height="20" viewBox="0 0 19 20" fill="none" xmlns="http://www.w3.org/2000/svg">
<g id="Sidebar">
<path id="Vector" d="M6.56311 4.09692V15.8523H3.0365C2.88061 15.8523 2.73111 15.7904 2.62088 15.6801C2.51066 15.5699 2.44873 15.4204 2.44873 15.2645V4.68469C2.44873 4.52881 2.51066 4.37931 2.62088 4.26908C2.73111 4.15885 2.88061 4.09692 3.0365 4.09692H6.56311Z" fill="#1C1C1C" fill-opacity="0.1"/>
<path id="Vector_2" d="M15.9674 3.50928H3.0365C2.72473 3.50928 2.42572 3.63313 2.20527 3.85358C1.98481 4.07404 1.86096 4.37304 1.86096 4.68481V15.2646C1.86096 15.5764 1.98481 15.8754 2.20527 16.0959C2.42572 16.3163 2.72473 16.4402 3.0365 16.4402H15.9674C16.2792 16.4402 16.5782 16.3163 16.7986 16.0959C17.0191 15.8754 17.1429 15.5764 17.1429 15.2646V4.68481C17.1429 4.37304 17.0191 4.07404 16.7986 3.85358C16.5782 3.63313 16.2792 3.50928 15.9674 3.50928ZM3.0365 11.738H4.21204C4.36792 11.738 4.51742 11.6761 4.62765 11.5659C4.73788 11.4557 4.7998 11.3062 4.7998 11.1503C4.7998 10.9944 4.73788 10.8449 4.62765 10.7347C4.51742 10.6244 4.36792 10.5625 4.21204 10.5625H3.0365V9.38696H4.21204C4.36792 9.38696 4.51742 9.32504 4.62765 9.21481C4.73788 9.10458 4.7998 8.95508 4.7998 8.79919C4.7998 8.64331 4.73788 8.49381 4.62765 8.38358C4.51742 8.27335 4.36792 8.21143 4.21204 8.21143H3.0365V7.03589H4.21204C4.36792 7.03589 4.51742 6.97396 4.62765 6.86374C4.73788 6.75351 4.7998 6.60401 4.7998 6.44812C4.7998 6.29223 4.73788 6.14273 4.62765 6.03251C4.51742 5.92228 4.36792 5.86035 4.21204 5.86035H3.0365V4.68481H5.97534V15.2646H3.0365V11.738ZM15.9674 15.2646H7.15088V4.68481H15.9674V15.2646Z" fill="#1C1C1C"/>
</g>
</svg>
